<mxfile host="Electron" agent="Mozilla/5.0 (Windows NT 10.0; Win64; x64) AppleWebKit/537.36 (KHTML, like Gecko) draw.io/27.0.9 Chrome/134.0.6998.205 Electron/35.4.0 Safari/537.36" version="27.0.9">
  <diagram name="Page-1" id="lK9U2gt7Nliw491O731G">
    <mxGraphModel dx="1426" dy="841" grid="1" gridSize="10" guides="1" tooltips="1" connect="1" arrows="1" fold="1" page="1" pageScale="1" pageWidth="850" pageHeight="1100" math="0" shadow="0">
      <root>
        <mxCell id="0" />
        <mxCell id="1" parent="0" />
        <mxCell id="YKuTrd-hwbT2meqSXN3H-9" value="" style="rounded=1;whiteSpace=wrap;html=1;fillColor=none;dashed=1;" vertex="1" parent="1">
          <mxGeometry x="810" y="150" width="470" height="500" as="geometry" />
        </mxCell>
        <mxCell id="XUIyAfd__oRIDwVJd9iZ-43" value="" style="rounded=1;whiteSpace=wrap;html=1;fillColor=none;dashed=1;" parent="1" vertex="1">
          <mxGeometry x="30" y="150" width="655" height="490" as="geometry" />
        </mxCell>
        <mxCell id="XUIyAfd__oRIDwVJd9iZ-2" value="&lt;font&gt;&lt;b&gt;Integration Model&lt;/b&gt;&lt;/font&gt;" style="text;html=1;align=left;verticalAlign=middle;whiteSpace=wrap;rounded=0;fontSize=40;" parent="1" vertex="1">
          <mxGeometry x="20" y="10" width="460" height="70" as="geometry" />
        </mxCell>
        <mxCell id="XUIyAfd__oRIDwVJd9iZ-3" value="crm_cust_info" style="swimlane;fontStyle=0;childLayout=stackLayout;horizontal=1;startSize=30;horizontalStack=0;resizeParent=1;resizeParentMax=0;resizeLast=0;collapsible=1;marginBottom=0;whiteSpace=wrap;html=1;fillColor=#dae8fc;strokeColor=#6c8ebf;rounded=1;swimlaneLine=0;fontSize=26;" parent="1" vertex="1">
          <mxGeometry x="420" y="426" width="220" height="120" as="geometry" />
        </mxCell>
        <mxCell id="XUIyAfd__oRIDwVJd9iZ-4" value="cst_id" style="text;strokeColor=none;fillColor=none;align=left;verticalAlign=middle;spacingLeft=4;spacingRight=4;overflow=hidden;points=[[0,0.5],[1,0.5]];portConstraint=eastwest;rotatable=0;whiteSpace=wrap;html=1;fontSize=24;" parent="XUIyAfd__oRIDwVJd9iZ-3" vertex="1">
          <mxGeometry y="30" width="220" height="40" as="geometry" />
        </mxCell>
        <mxCell id="XUIyAfd__oRIDwVJd9iZ-25" value="cst_key" style="text;strokeColor=none;fillColor=none;align=left;verticalAlign=middle;spacingLeft=4;spacingRight=4;overflow=hidden;points=[[0,0.5],[1,0.5]];portConstraint=eastwest;rotatable=0;whiteSpace=wrap;html=1;fontSize=24;" parent="XUIyAfd__oRIDwVJd9iZ-3" vertex="1">
          <mxGeometry y="70" width="220" height="50" as="geometry" />
        </mxCell>
        <mxCell id="XUIyAfd__oRIDwVJd9iZ-7" value="Customer Information" style="text;html=1;align=center;verticalAlign=middle;whiteSpace=wrap;rounded=0;fontSize=20;fontStyle=1" parent="1" vertex="1">
          <mxGeometry x="420" y="389" width="220" height="30" as="geometry" />
        </mxCell>
        <mxCell id="XUIyAfd__oRIDwVJd9iZ-8" value="crm_prd_info" style="swimlane;fontStyle=0;childLayout=stackLayout;horizontal=1;startSize=30;horizontalStack=0;resizeParent=1;resizeParentMax=0;resizeLast=0;collapsible=1;marginBottom=0;whiteSpace=wrap;html=1;fillColor=#dae8fc;strokeColor=#6c8ebf;rounded=1;swimlaneLine=0;fontSize=26;" parent="1" vertex="1">
          <mxGeometry x="420" y="228" width="220" height="80" as="geometry" />
        </mxCell>
        <mxCell id="XUIyAfd__oRIDwVJd9iZ-9" value="prd_id" style="text;strokeColor=none;fillColor=none;align=left;verticalAlign=middle;spacingLeft=4;spacingRight=4;overflow=hidden;points=[[0,0.5],[1,0.5]];portConstraint=eastwest;rotatable=0;whiteSpace=wrap;html=1;fontSize=24;" parent="XUIyAfd__oRIDwVJd9iZ-8" vertex="1">
          <mxGeometry y="30" width="220" height="50" as="geometry" />
        </mxCell>
        <mxCell id="XUIyAfd__oRIDwVJd9iZ-10" value="&amp;nbsp;Product Information&lt;div&gt;&lt;font style=&quot;font-size: 15px; font-weight: normal;&quot;&gt;(&lt;span style=&quot;background-color: transparent; color: light-dark(rgb(0, 0, 0), rgb(255, 255, 255));&quot;&gt;Current &amp;amp; Historical Data)&lt;/span&gt;&lt;/font&gt;&lt;/div&gt;" style="text;html=1;align=center;verticalAlign=middle;whiteSpace=wrap;rounded=0;fontSize=20;fontStyle=1" parent="1" vertex="1">
          <mxGeometry x="390" y="171" width="270" height="50" as="geometry" />
        </mxCell>
        <mxCell id="XUIyAfd__oRIDwVJd9iZ-13" value="crm_sales_details" style="swimlane;fontStyle=0;childLayout=stackLayout;horizontal=1;startSize=30;horizontalStack=0;resizeParent=1;resizeParentMax=0;resizeLast=0;collapsible=1;marginBottom=0;whiteSpace=wrap;html=1;fillColor=#dae8fc;strokeColor=#6c8ebf;rounded=1;swimlaneLine=0;fontSize=26;" parent="1" vertex="1">
          <mxGeometry x="90" y="325" width="220" height="140" as="geometry" />
        </mxCell>
        <mxCell id="XUIyAfd__oRIDwVJd9iZ-14" value="prd_key" style="text;strokeColor=none;fillColor=none;align=left;verticalAlign=middle;spacingLeft=4;spacingRight=4;overflow=hidden;points=[[0,0.5],[1,0.5]];portConstraint=eastwest;rotatable=0;whiteSpace=wrap;html=1;fontSize=24;" parent="XUIyAfd__oRIDwVJd9iZ-13" vertex="1">
          <mxGeometry y="30" width="220" height="40" as="geometry" />
        </mxCell>
        <mxCell id="XUIyAfd__oRIDwVJd9iZ-16" value="cst_id" style="text;strokeColor=none;fillColor=none;align=left;verticalAlign=middle;spacingLeft=4;spacingRight=4;overflow=hidden;points=[[0,0.5],[1,0.5]];portConstraint=eastwest;rotatable=0;whiteSpace=wrap;html=1;fontSize=24;" parent="XUIyAfd__oRIDwVJd9iZ-13" vertex="1">
          <mxGeometry y="70" width="220" height="40" as="geometry" />
        </mxCell>
        <mxCell id="YKuTrd-hwbT2meqSXN3H-25" value="Sales" style="rounded=0;whiteSpace=wrap;html=1;fontSize=17;fillColor=#e1d5e7;strokeColor=#9673a6;fontStyle=1;align=left;" vertex="1" parent="XUIyAfd__oRIDwVJd9iZ-13">
          <mxGeometry y="110" width="220" height="30" as="geometry" />
        </mxCell>
        <mxCell id="XUIyAfd__oRIDwVJd9iZ-15" value="&lt;div&gt;Sales &amp;amp; Orders&lt;/div&gt;&lt;font style=&quot;font-size: 15px; font-weight: normal;&quot;&gt;(Tranactional Records)&amp;nbsp;&lt;/font&gt;&amp;nbsp;" style="text;html=1;align=center;verticalAlign=middle;whiteSpace=wrap;rounded=0;fontSize=20;fontStyle=1" parent="1" vertex="1">
          <mxGeometry x="60" y="275" width="270" height="50" as="geometry" />
        </mxCell>
        <mxCell id="XUIyAfd__oRIDwVJd9iZ-20" value="" style="edgeStyle=orthogonalEdgeStyle;rounded=0;orthogonalLoop=1;jettySize=auto;html=1;" parent="1" source="XUIyAfd__oRIDwVJd9iZ-14" edge="1">
          <mxGeometry relative="1" as="geometry">
            <mxPoint x="417" y="320" as="targetPoint" />
            <Array as="points">
              <mxPoint x="365" y="370" />
              <mxPoint x="365" y="320" />
            </Array>
          </mxGeometry>
        </mxCell>
        <mxCell id="XUIyAfd__oRIDwVJd9iZ-22" value="erp_cust_az12" style="swimlane;fontStyle=0;childLayout=stackLayout;horizontal=1;startSize=30;horizontalStack=0;resizeParent=1;resizeParentMax=0;resizeLast=0;collapsible=1;marginBottom=0;whiteSpace=wrap;html=1;fillColor=#fff2cc;strokeColor=#d6b656;rounded=1;swimlaneLine=0;fontSize=26;" parent="1" vertex="1">
          <mxGeometry x="918" y="351" width="220" height="100" as="geometry" />
        </mxCell>
        <mxCell id="XUIyAfd__oRIDwVJd9iZ-23" value="cid" style="text;strokeColor=none;fillColor=none;align=left;verticalAlign=middle;spacingLeft=4;spacingRight=4;overflow=hidden;points=[[0,0.5],[1,0.5]];portConstraint=eastwest;rotatable=0;whiteSpace=wrap;html=1;fontSize=24;" parent="XUIyAfd__oRIDwVJd9iZ-22" vertex="1">
          <mxGeometry y="30" width="220" height="40" as="geometry" />
        </mxCell>
        <mxCell id="YKuTrd-hwbT2meqSXN3H-20" value="Customer" style="rounded=0;whiteSpace=wrap;html=1;fontSize=17;fillColor=#d5e8d4;strokeColor=#82b366;fontStyle=1;align=left;" vertex="1" parent="XUIyAfd__oRIDwVJd9iZ-22">
          <mxGeometry y="70" width="220" height="30" as="geometry" />
        </mxCell>
        <mxCell id="XUIyAfd__oRIDwVJd9iZ-24" value="Additional&amp;nbsp;&lt;span style=&quot;background-color: transparent; color: light-dark(rgb(0, 0, 0), rgb(255, 255, 255));&quot;&gt;Customer Information &lt;span style=&quot;font-weight: normal;&quot;&gt;&lt;font style=&quot;font-size: 15px;&quot;&gt;(Birthdates&lt;/font&gt;)&lt;/span&gt;&lt;/span&gt;" style="text;html=1;align=center;verticalAlign=middle;whiteSpace=wrap;rounded=0;fontSize=20;fontStyle=1;fillColor=none;strokeColor=none;" parent="1" vertex="1">
          <mxGeometry x="878" y="306" width="320" height="30" as="geometry" />
        </mxCell>
        <mxCell id="XUIyAfd__oRIDwVJd9iZ-28" value="erp_loc_a101" style="swimlane;fontStyle=0;childLayout=stackLayout;horizontal=1;startSize=30;horizontalStack=0;resizeParent=1;resizeParentMax=0;resizeLast=0;collapsible=1;marginBottom=0;whiteSpace=wrap;html=1;fillColor=#fff2cc;strokeColor=#d6b656;rounded=1;swimlaneLine=0;fontSize=26;" parent="1" vertex="1">
          <mxGeometry x="918" y="529" width="220" height="80" as="geometry" />
        </mxCell>
        <mxCell id="YKuTrd-hwbT2meqSXN3H-7" value="cid" style="text;strokeColor=none;fillColor=none;align=left;verticalAlign=middle;spacingLeft=4;spacingRight=4;overflow=hidden;points=[[0,0.5],[1,0.5]];portConstraint=eastwest;rotatable=0;whiteSpace=wrap;html=1;fontSize=24;" vertex="1" parent="XUIyAfd__oRIDwVJd9iZ-28">
          <mxGeometry y="30" width="220" height="50" as="geometry" />
        </mxCell>
        <mxCell id="XUIyAfd__oRIDwVJd9iZ-30" value="Location of Customers&amp;nbsp;&lt;div&gt;&lt;span style=&quot;font-weight: normal;&quot;&gt;&lt;font style=&quot;font-size: 15px;&quot;&gt;(Country)&lt;/font&gt;&lt;/span&gt;&lt;/div&gt;" style="text;html=1;align=center;verticalAlign=middle;whiteSpace=wrap;rounded=0;fontSize=20;fontStyle=1;fillColor=none;strokeColor=none;" parent="1" vertex="1">
          <mxGeometry x="878" y="482" width="320" height="30" as="geometry" />
        </mxCell>
        <mxCell id="XUIyAfd__oRIDwVJd9iZ-35" value="erp_px_cat_g1v2" style="swimlane;fontStyle=0;childLayout=stackLayout;horizontal=1;startSize=30;horizontalStack=0;resizeParent=1;resizeParentMax=0;resizeLast=0;collapsible=1;marginBottom=0;whiteSpace=wrap;html=1;fillColor=#fff2cc;strokeColor=#d6b656;rounded=1;swimlaneLine=0;fontSize=26;" parent="1" vertex="1">
          <mxGeometry x="915" y="180" width="220" height="100" as="geometry" />
        </mxCell>
        <mxCell id="XUIyAfd__oRIDwVJd9iZ-36" value="id" style="text;strokeColor=none;fillColor=none;align=left;verticalAlign=middle;spacingLeft=4;spacingRight=4;overflow=hidden;points=[[0,0.5],[1,0.5]];portConstraint=eastwest;rotatable=0;whiteSpace=wrap;html=1;fontSize=24;" parent="XUIyAfd__oRIDwVJd9iZ-35" vertex="1">
          <mxGeometry y="30" width="220" height="40" as="geometry" />
        </mxCell>
        <mxCell id="YKuTrd-hwbT2meqSXN3H-18" value="Product" style="rounded=0;whiteSpace=wrap;html=1;fontSize=17;fillColor=#f8cecc;strokeColor=#b85450;fontStyle=1;align=left;" vertex="1" parent="XUIyAfd__oRIDwVJd9iZ-35">
          <mxGeometry y="70" width="220" height="30" as="geometry" />
        </mxCell>
        <mxCell id="XUIyAfd__oRIDwVJd9iZ-37" value="Product Categories" style="text;html=1;align=center;verticalAlign=middle;whiteSpace=wrap;rounded=0;fontSize=20;fontStyle=1;fillColor=none;strokeColor=none;" parent="1" vertex="1">
          <mxGeometry x="868" y="150" width="320" height="30" as="geometry" />
        </mxCell>
        <mxCell id="XUIyAfd__oRIDwVJd9iZ-38" style="edgeStyle=orthogonalEdgeStyle;rounded=0;orthogonalLoop=1;jettySize=auto;html=1;entryX=1;entryY=0.5;entryDx=0;entryDy=0;" parent="1" source="XUIyAfd__oRIDwVJd9iZ-36" target="XUIyAfd__oRIDwVJd9iZ-9" edge="1">
          <mxGeometry relative="1" as="geometry" />
        </mxCell>
        <mxCell id="XUIyAfd__oRIDwVJd9iZ-42" value="&lt;b&gt;&lt;font&gt;CRM&lt;/font&gt;&lt;/b&gt;" style="text;html=1;align=center;verticalAlign=middle;whiteSpace=wrap;rounded=0;fillColor=#dae8fc;strokeColor=#6c8ebf;fontSize=40;" parent="1" vertex="1">
          <mxGeometry x="297" y="97" width="121" height="50" as="geometry" />
        </mxCell>
        <mxCell id="XUIyAfd__oRIDwVJd9iZ-44" value="&lt;b&gt;&lt;font&gt;ERP&lt;/font&gt;&lt;/b&gt;" style="text;html=1;align=center;verticalAlign=middle;whiteSpace=wrap;rounded=0;fillColor=#fff2cc;strokeColor=#d6b656;fontSize=40;" parent="1" vertex="1">
          <mxGeometry x="977" y="107" width="122" height="40" as="geometry" />
        </mxCell>
        <mxCell id="YKuTrd-hwbT2meqSXN3H-6" style="edgeStyle=orthogonalEdgeStyle;rounded=0;orthogonalLoop=1;jettySize=auto;html=1;entryX=1.018;entryY=0.3;entryDx=0;entryDy=0;entryPerimeter=0;" edge="1" parent="1" source="XUIyAfd__oRIDwVJd9iZ-23" target="XUIyAfd__oRIDwVJd9iZ-25">
          <mxGeometry relative="1" as="geometry" />
        </mxCell>
        <mxCell id="YKuTrd-hwbT2meqSXN3H-8" style="edgeStyle=orthogonalEdgeStyle;rounded=0;orthogonalLoop=1;jettySize=auto;html=1;entryX=1.023;entryY=0.3;entryDx=0;entryDy=0;entryPerimeter=0;" edge="1" parent="1" source="YKuTrd-hwbT2meqSXN3H-7" target="XUIyAfd__oRIDwVJd9iZ-25">
          <mxGeometry relative="1" as="geometry" />
        </mxCell>
        <mxCell id="YKuTrd-hwbT2meqSXN3H-16" style="edgeStyle=orthogonalEdgeStyle;rounded=0;orthogonalLoop=1;jettySize=auto;html=1;" edge="1" parent="1" source="XUIyAfd__oRIDwVJd9iZ-16" target="XUIyAfd__oRIDwVJd9iZ-4">
          <mxGeometry relative="1" as="geometry" />
        </mxCell>
        <mxCell id="YKuTrd-hwbT2meqSXN3H-17" value="Product" style="rounded=0;whiteSpace=wrap;html=1;fontSize=17;fillColor=#f8cecc;strokeColor=#b85450;fontStyle=1;align=left;" vertex="1" parent="1">
          <mxGeometry x="420" y="300" width="220" height="28" as="geometry" />
        </mxCell>
        <mxCell id="YKuTrd-hwbT2meqSXN3H-19" value="Customer" style="rounded=0;whiteSpace=wrap;html=1;fontSize=17;fillColor=#d5e8d4;strokeColor=#82b366;fontStyle=1;align=left;" vertex="1" parent="1">
          <mxGeometry x="420" y="539" width="220" height="32" as="geometry" />
        </mxCell>
        <mxCell id="YKuTrd-hwbT2meqSXN3H-24" value="Customer" style="rounded=0;whiteSpace=wrap;html=1;fontSize=17;fillColor=#d5e8d4;strokeColor=#82b366;fontStyle=1;align=left;" vertex="1" parent="1">
          <mxGeometry x="918" y="601" width="220" height="29" as="geometry" />
        </mxCell>
      </root>
    </mxGraphModel>
  </diagram>
</mxfile>
